# xmcd CD database file
# Copyright (C) 1993-1996 Ti Kan
#
# Track frame offsets:
#	150
#	14857
#	30152
#	47810
#	66742
#	88187
#	106632
#	125925
#	142507
#	153595
#
# Disc length: 2260 seconds
#
# Revision: 1
# Processed by: cddbd v1.4b41PL1 Copyright (c) Steve Scherf et al.
# Submitted via: CDValet v3.01 - Copyright (c) 1997 Greg Leichner
#
DISCID=8708d20a
DTITLE=Various Artist - Original Artists - Pure Country
DYEAR=1900
DGENRE=
TTITLE0=Life's Highway
TTITLE1=Crazy Over You
TTITLE2=Real Love
TTITLE3=Don't Close Your Eyes
TTITLE4=The Bluest Eyes In Texas
TTITLE5=Do Ya'
TTITLE6=Lost In The Fifties Tonight (In The Still Of The Night)
TTITLE7=I Won't Take Less Than Your Love
TTITLE8=Too Gone Too Long
TTITLE9=We Believe In Happy Endings
EXTD=
EXTT0=
EXTT1=
EXTT2=
EXTT3=
EXTT4=
EXTT5=
EXTT6=
EXTT7=
EXTT8=
EXTT9=
PLAYORDER=
